<?xml version="1.0" encoding="UTF-8"?> <svg xmlns="http://www.w3.org/2000/svg" id="Layer_1" data-name="Layer 1" viewBox="0 0 200 46.7"><path d="M19.7,18.6a25.47162,25.47162,0,0,0,4-.8A7.03882,7.03882,0,0,0,26,16.7,4.24793,4.24793,0,0,0,27,15a6.44772,6.44772,0,0,0,.3-2,2.40169,2.40169,0,0,0-.6-1.5,3.8146,3.8146,0,0,0-1.4-1.1,7.74064,7.74064,0,0,0-1.6-.7,7.84448,7.84448,0,0,0-1.4-.2,4.4081,4.4081,0,0,0,1.4-.3A4.42754,4.42754,0,0,0,25.2,8,3.43939,3.43939,0,0,0,26,5.9a6.68855,6.68855,0,0,0-.5-2.6,3.50108,3.50108,0,0,0-1.8-1.8A9.00743,9.00743,0,0,0,20.1.4a47.49422,47.49422,0,0,0-6-.3H.4V18.9H13.9C16.2,18.8,18.1,18.7,19.7,18.6ZM8.2,7.8V4.6h5.2a16.11843,16.11843,0,0,1,2.6.2,2.28941,2.28941,0,0,1,1.4.5,1.22235,1.22235,0,0,1,.3.9,1.22235,1.22235,0,0,1-.3.9,3.76617,3.76617,0,0,1-1.4.6,18.57731,18.57731,0,0,1-2.6.1Zm0,6.3V11h5.2c1.1,0,2.1.1,2.8.1a3.01736,3.01736,0,0,1,1.6.5,1.09986,1.09986,0,0,1,.6,1,1.14878,1.14878,0,0,1-.6,1.1,2.9843,2.9843,0,0,1-1.6.3,23.52177,23.52177,0,0,1-2.8.1Z"></path><path d="M52.7,16.6a8.382,8.382,0,0,0,2.9-6.9,8.82966,8.82966,0,0,0-2.9-6.9C50.5,1,47.1,0,42.5,0c-4.7,0-8.1,1-10.3,2.8a8.513,8.513,0,0,0-2.9,6.9,8.68665,8.68665,0,0,0,2.9,6.9c2.2,2,5.6,2.9,10.3,2.9C47.1,19.6,50.5,18.6,52.7,16.6ZM38.2,12.9a5.086,5.086,0,0,1-1-3.2,4.805,4.805,0,0,1,1-3.1C39.1,5.5,40.5,5,42.5,5a5.1358,5.1358,0,0,1,4.2,1.7,4.62431,4.62431,0,0,1,1,3.1,5.086,5.086,0,0,1-1,3.2,5.089,5.089,0,0,1-4.2,1.6C40.5,14.5,39.1,14,38.2,12.9Z"></path><path d="M86.6,0H78.7V12.7L68.1,0H58.8V18.8h7.8V6.1L77.2,18.8h9.4Z"></path><path d="M108.1,9.2,121.6,0H111.3L98.6,8.7V0H90.8V18.8h7.8V15.7l4.6-3.3,8.2,6.3h10.2Z"></path><path d="M146.4,14.1H131.7V11.2h11.7V7.6H131.7v-3h13.7V0H123.9V18.8h22.5Z"></path><path d="M174.6,16.4a6.11481,6.11481,0,0,0-.7-2.4,4.71257,4.71257,0,0,0-2.5-1.9,6.14145,6.14145,0,0,0,2.8-2,5.92932,5.92932,0,0,0,.9-3.4,5.21614,5.21614,0,0,0-1.4-3.8A7.59228,7.59228,0,0,0,169.6.7a30.39739,30.39739,0,0,0-7.4-.7H149.4V18.8h7.8V13.4h5.1a4.90942,4.90942,0,0,1,2.7.6,2.89117,2.89117,0,0,1,1.2,1.5c.2.5.4,1.1.6,1.6a3.76468,3.76468,0,0,0,.7,1.8H175C174.9,18,174.7,17.2,174.6,16.4ZM157.4,4.6h4.5a18.46456,18.46456,0,0,1,2.9.2,3.01739,3.01739,0,0,1,1.6.5,1.19586,1.19586,0,0,1,.7.7,1.85376,1.85376,0,0,1,.2.7,3.09173,3.09173,0,0,1-.2.8,1.542,1.542,0,0,1-.7.7,6.02484,6.02484,0,0,1-1.6.5,23.58206,23.58206,0,0,1-2.9.1h-4.5Z"></path><path d="M194.8,18.8a8.53521,8.53521,0,0,0,3.5-2.3,8.39317,8.39317,0,0,0,1.7-3.4v-.8a3.69063,3.69063,0,0,0-.7-2.3,7.34132,7.34132,0,0,0-2.7-1.7,20.11751,20.11751,0,0,0-3.7-.8c-1.3-.1-2.5-.3-3.7-.3-1.1-.1-2-.1-2.6-.2s-.9-.3-.9-.5c0-.1,0-.1.1-.2a3.30127,3.30127,0,0,1,2.9-1.4,3.18629,3.18629,0,0,1,2.9,1.4H200A7.431,7.431,0,0,0,198.3,3,7.65551,7.65551,0,0,0,194.8.7a20.49685,20.49685,0,0,0-6.1-.8,20.74183,20.74183,0,0,0-6.2.8A7.41641,7.41641,0,0,0,179,3a6.40737,6.40737,0,0,0-1.6,3.3,1.70178,1.70178,0,0,0-.1.7c0,2.5,1.9,4,5.8,4.6,1.7.2,3.4.4,5,.5q1.8.15,2.7.3c.7.1,1,.2,1,.5a.34913.34913,0,0,1-.1.2,3.30127,3.30127,0,0,1-2.9,1.4,3.18629,3.18629,0,0,1-2.9-1.4h-8.4a6.32642,6.32642,0,0,0,1.6,3.4,9.27367,9.27367,0,0,0,3.5,2.3,21.22413,21.22413,0,0,0,6.2.8A20.75235,20.75235,0,0,0,194.8,18.8Z"></path><path d="M20.3,45.8a10.77485,10.77485,0,0,0,4.2-2.6,8.20463,8.20463,0,0,0,1.9-3.7H18.1c-.8,1.4-2.3,2.2-4.5,2.2-2,0-3.4-.5-4.3-1.6a5.086,5.086,0,0,1-1-3.2,4.80494,4.80494,0,0,1,1-3.1,5.21536,5.21536,0,0,1,4.3-1.7c2.2,0,3.7.7,4.5,2.2h8.3a8.36132,8.36132,0,0,0-1.9-3.6,9.7328,9.7328,0,0,0-4.2-2.6,21.284,21.284,0,0,0-6.7-.9c-4.7,0-8.1,1-10.3,2.8A8.513,8.513,0,0,0,.4,36.9a8.68667,8.68667,0,0,0,2.9,6.9c2.2,2,5.6,2.9,10.3,2.9A21.28425,21.28425,0,0,0,20.3,45.8Z"></path><path d="M51.9,43.7a8.382,8.382,0,0,0,2.9-6.9,8.82966,8.82966,0,0,0-2.9-6.9c-2.2-1.9-5.6-2.8-10.2-2.8-4.7,0-8.1,1-10.3,2.8a8.513,8.513,0,0,0-2.9,6.9,8.68665,8.68665,0,0,0,2.9,6.9c2.2,2,5.6,2.9,10.3,2.9C46.3,46.7,49.7,45.7,51.9,43.7ZM37.4,40a5.086,5.086,0,0,1-1-3.2,4.805,4.805,0,0,1,1-3.1A5.21539,5.21539,0,0,1,41.7,32a5.1358,5.1358,0,0,1,4.2,1.7,4.62432,4.62432,0,0,1,1,3.1,5.086,5.086,0,0,1-1,3.2,5.089,5.089,0,0,1-4.2,1.6C39.7,41.6,38.3,41.1,37.4,40Z"></path><path d="M83,44.3a6.11448,6.11448,0,0,0-.7-2.4A4.71257,4.71257,0,0,0,79.8,40a6.14148,6.14148,0,0,0,2.8-2,5.92947,5.92947,0,0,0,.9-3.4,5.21614,5.21614,0,0,0-1.4-3.8A7.59236,7.59236,0,0,0,78,28.6a30.39739,30.39739,0,0,0-7.4-.7H57.9V46.7h7.8V41.3h5.1a4.9095,4.9095,0,0,1,2.7.6,2.89124,2.89124,0,0,1,1.2,1.5c.2.5.4,1.1.6,1.6a3.76478,3.76478,0,0,0,.7,1.8h7.5A8.49906,8.49906,0,0,1,83,44.3ZM65.7,32.5h4.5a18.46477,18.46477,0,0,1,2.9.2,3.01736,3.01736,0,0,1,1.6.5,1.19587,1.19587,0,0,1,.7.7,1.854,1.854,0,0,1,.2.7,3.09116,3.09116,0,0,1-.2.8,1.542,1.542,0,0,1-.7.7,6.02548,6.02548,0,0,1-1.6.5,23.58441,23.58441,0,0,1-2.9.1H65.7Z"></path><path d="M114.5,27.9h-7.9V40.6L96,27.9H86.7V46.7h7.8V34l10.6,12.7h9.4Z"></path><path d="M141.2,42H126.5V39.1h11.7V35.5H126.5V32.6h13.7V28H118.7V46.8h22.5Z"></path><path d="M169.5,44.3a6.11464,6.11464,0,0,0-.7-2.4,4.71253,4.71253,0,0,0-2.5-1.9,6.14148,6.14148,0,0,0,2.8-2,5.92939,5.92939,0,0,0,.9-3.4,5.21618,5.21618,0,0,0-1.4-3.8,7.59235,7.59235,0,0,0-4.1-2.2,30.39725,30.39725,0,0,0-7.4-.7H144.3V46.7h7.8V41.3h5.1a4.90948,4.90948,0,0,1,2.7.6,2.89119,2.89119,0,0,1,1.2,1.5c.2.5.4,1.1.6,1.6a3.76488,3.76488,0,0,0,.7,1.8h7.5A12.85121,12.85121,0,0,1,169.5,44.3ZM152.2,32.5h4.5a18.46451,18.46451,0,0,1,2.9.2,3.01743,3.01743,0,0,1,1.6.5,1.1959,1.1959,0,0,1,.7.7,1.85381,1.85381,0,0,1,.2.7,3.09116,3.09116,0,0,1-.2.8,1.542,1.542,0,0,1-.7.7,6.02545,6.02545,0,0,1-1.6.5,23.58431,23.58431,0,0,1-2.9.1h-4.5Z"></path></svg> 